<svg width="420" height="96" viewBox="0 0 420 96" fill="none" xmlns="http://www.w3.org/2000/svg">
  <g>
    <rect x="0.75" y="0.75" width="94.5" height="94.5" rx="22.25" fill="#FFF8EF" stroke="#E7D4BC" stroke-width="1.5"/>
    <path d="M26 28.5C26 24.3579 29.3579 21 33.5 21H56.5C64.232 21 70.5 27.268 70.5 35V58C70.5 62.1421 67.1421 65.5 63 65.5H40C32.268 65.5 26 59.232 26 51.5V28.5Z" fill="#A86A33"/>
    <path d="M37.5 37H57.5" stroke="#FCF8F2" stroke-width="5.75" stroke-linecap="round"/>
    <path d="M37.5 48.5H57.5" stroke="#FCF8F2" stroke-width="5.75" stroke-linecap="round"/>
    <path d="M46.8 29.4V55.3" stroke="#FCF8F2" stroke-width="5.75" stroke-linecap="round"/>
    <circle cx="62.5" cy="31.5" r="9.5" fill="#24160D"/>
    <path d="M59.2 31.5H65.8" stroke="#FCF8F2" stroke-width="2.9" stroke-linecap="round"/>
    <path d="M62.5 28.2V34.8" stroke="#FCF8F2" stroke-width="2.9" stroke-linecap="round"/>
  </g>
  <path d="M126.9 31.9H134.5V64H126.9V31.9ZM140.2 58.1H154.3V64H140.2V58.1ZM159.2 31.9H166.8V58C166.8 58.6 166.9 59.1 167.2 59.5C167.6 59.8 168.1 60 168.8 60H170V64H167.1C164.4 64 162.4 63.4 161.2 62.3C159.9 61.2 159.2 59.5 159.2 57.2V31.9ZM174.4 31.9H182V64H174.4V31.9ZM189.2 31.9H196.8V57.9H212.2V64H189.2V31.9ZM231.8 64.4C228.6 64.4 225.8 63.7 223.4 62.4C221.1 61 219.3 59 218 56.5C216.7 54 216 51 216 47.4V48.5C216 44.9 216.7 41.9 218 39.4C219.3 36.9 221.1 34.9 223.4 33.6C225.8 32.2 228.6 31.5 231.8 31.5C235 31.5 237.8 32.2 240.2 33.6C242.5 34.9 244.3 36.9 245.6 39.4C246.9 41.9 247.6 44.9 247.6 48.5V47.4C247.6 51 246.9 54 245.6 56.5C244.3 59 242.5 61 240.2 62.4C237.8 63.7 235 64.4 231.8 64.4ZM231.8 57.7C234.6 57.7 236.7 56.9 238.2 55.2C239.8 53.5 240.6 51.1 240.6 48V47.9C240.6 44.8 239.8 42.4 238.2 40.7C236.7 39 234.6 38.2 231.8 38.2C229 38.2 226.9 39 225.3 40.7C223.8 42.4 223 44.8 223 47.9V48C223 51.1 223.8 53.5 225.3 55.2C226.9 56.9 229 57.7 231.8 57.7ZM264 64.4C260.9 64.4 258.2 63.7 256.1 62.4C253.9 61 252.3 59.1 251.1 56.6C250 54.1 249.4 51.1 249.4 47.5V48.4C249.4 44.8 250 41.8 251.2 39.4C252.4 36.9 254.2 35 256.4 33.7C258.6 32.3 261.3 31.6 264.4 31.6C267.1 31.6 269.5 32.2 271.4 33.3C273.3 34.3 274.8 35.8 275.8 37.7C276.9 39.5 277.4 41.7 277.4 44.1V44.2H270.2V44.1C270.2 42.3 269.6 40.9 268.4 39.8C267.3 38.7 265.7 38.2 263.6 38.2C260.9 38.2 258.9 39 257.5 40.6C256.1 42.2 255.4 44.6 255.4 47.8V48.1C255.4 51.2 256.1 53.5 257.5 55.2C258.9 56.8 260.9 57.6 263.6 57.6C265.8 57.6 267.4 57.1 268.6 56.1C269.8 55 270.4 53.6 270.4 51.8V51.7H277.6V51.8C277.6 54.2 277 56.3 275.9 58.2C274.9 60 273.3 61.5 271.3 62.6C269.4 63.8 267 64.4 264 64.4ZM285.7 64V31.9H292.9V64H285.7ZM307.2 64.4C304.6 64.4 302.3 63.8 300.4 62.8C298.5 61.8 297 60.3 296 58.3C295 56.4 294.4 54.1 294.4 51.5V31.9H301.6V51.1C301.6 53.2 302.2 54.8 303.4 56C304.5 57.2 306 57.8 307.9 57.8C309.9 57.8 311.5 57.2 312.6 55.9C313.8 54.7 314.4 53 314.4 50.8V31.9H321.6V64H314.5V59.8C313.6 61.3 312.4 62.4 310.8 63.2C309.3 64 308.1 64.4 307.2 64.4ZM328.2 64V31.9H335.4V37.3C336.1 35.4 337.2 34 338.7 33C340.3 32 342.2 31.5 344.5 31.5H345.9V38.4H343.8C341.2 38.4 339.2 39.1 337.8 40.5C336.4 41.8 335.6 43.8 335.6 46.4V64H328.2Z" fill="#24160D"/>
</svg>
